<?xml version="1.0" encoding="utf-8"?>
<!-- Uploaded to: SVG Repo, www.svgrepo.com, Generator: SVG Repo Mixer Tools -->
<svg width="800px" height="800px" viewBox="0 0 64 64" xmlns="http://www.w3.org/2000/svg">
  <g id="whale" transform="translate(-620 -496)">
    <path id="Path_11" data-name="Path 11" d="M682,527H627v3.5a27.5,27.5,0,0,0,55,0Z" fill="#1b8cff" opacity="0.3"/>
    <path id="Path_12" data-name="Path 12" d="M646.5,556.818A27.513,27.513,0,0,0,666,530.5V527" fill="none" stroke="#ffffff" stroke-linecap="round" stroke-linejoin="round" stroke-width="2" opacity="0.5"/>
    <path id="Path_13" data-name="Path 13" d="M682,527H627v3.5a27.5,27.5,0,0,0,55,0Z" fill="none" stroke="#1b8cff" stroke-linecap="round" stroke-linejoin="round" stroke-width="4"/>
    <path id="Path_14" data-name="Path 14" d="M627,527h-5V506a12,12,0,0,1,12,12H622" fill="none" stroke="#1b8cff" stroke-linecap="round" stroke-linejoin="round" stroke-width="4"/>
    <path id="Path_15" data-name="Path 15" d="M681,538H654.774a8.5,8.5,0,0,1-8.5,8.5H646V538H628" fill="none" stroke="#1b8cff" stroke-miterlimit="10" stroke-width="2"/>
    <circle id="Ellipse_8" data-name="Ellipse 8" cx="2" cy="2" r="2" transform="translate(671 531)" fill="#1b8cff"/>
    <path id="Path_16" data-name="Path 16" d="M659,504a4,4,0,0,1,8,0v13" fill="none" stroke="#1b8cff" stroke-linecap="round" stroke-linejoin="round" stroke-width="2"/>
    <path id="Path_17" data-name="Path 17" d="M683,504a4,4,0,0,0-8,0v13" fill="none" stroke="#1b8cff" stroke-linecap="round" stroke-linejoin="round" stroke-width="2"/>
    <line id="Line_39" data-name="Line 39" y2="25" transform="translate(671 497)" fill="none" stroke="#1b8cff" stroke-linecap="round" stroke-linejoin="round" stroke-width="2"/>
  </g>
</svg>